<?xml version="1.0" standalone="no"?>
<!DOCTYPE svg PUBLIC "-//W3C//DTD SVG 20010904//EN"
 "http://www.w3.org/TR/2001/REC-SVG-20010904/DTD/svg10.dtd">
<svg version="1.0" xmlns="http://www.w3.org/2000/svg"
 width="103.000000pt" height="106.000000pt" viewBox="0 0 103.000000 106.000000"
 preserveAspectRatio="xMidYMid meet">
<metadata>
Created by potrace 1.16, written by Peter Selinger 2001-2019
</metadata>
<g transform="translate(-22.000000,126.000000) scale(0.100000,-0.100000)"
fill="#FFFFFF" stroke="none">
<path d="M576 1183 c-3 -42 -6 -98 -6 -125 0 -36 -4 -48 -15 -48 -8 0 -15 -7
-15 -15 0 -21 -32 -55 -52 -55 -10 0 -18 -9 -20 -22 -3 -22 -7 -23 -125 -26
-164 -4 -162 -22 2 -22 164 0 166 -18 3 -22 -86 -2 -123 -7 -126 -15 -3 -10
26 -13 122 -13 77 0 126 -4 126 -10 0 -5 -26 -10 -57 -10 -88 0 -193 -12 -193
-21 0 -5 56 -9 125 -9 118 0 125 -1 125 -20 0 -13 7 -20 19 -20 11 0 23 -4 26
-10 3 -5 17 -10 31 -10 17 0 24 -5 24 -20 0 -11 5 -20 11 -20 6 0 22 -13 36
-30 13 -16 31 -30 38 -30 8 0 23 14 35 30 12 17 27 30 35 30 7 0 15 9 18 20 3
11 14 20 25 20 14 0 21 9 26 30 5 30 6 30 69 30 137 0 367 14 367 22 0 4 -82
8 -182 8 -122 0 -178 4 -168 10 8 5 95 10 193 10 151 0 177 2 177 15 0 13 -23
15 -151 15 -97 0 -148 4 -144 10 4 6 65 10 151 10 89 0 144 4 144 10 0 6 -21
11 -47 11 -27 1 -52 2 -58 4 -5 1 -39 3 -74 3 l-63 2 15 23 c56 79 97 179 97
239 0 41 -18 34 -25 -9 -19 -112 -73 -207 -153 -270 -64 -51 -129 -80 -144
-65 -8 8 -6 13 8 18 42 16 132 84 167 128 52 63 88 146 94 217 8 81 -10 76
-26 -7 -17 -94 -46 -149 -116 -218 -72 -73 -120 -103 -128 -82 -4 10 12 27 43
50 95 68 158 170 176 284 5 35 4 42 -10 42 -11 0 -16 -9 -16 -30 0 -80 -70
-204 -148 -263 -36 -27 -37 -28 -46 -7 -5 11 -13 20 -18 20 -4 0 -8 9 -8 20 0
15 -7 20 -25 20 l-25 0 0 125 c0 77 -4 125 -10 125 -6 0 -10 -48 -10 -125 0
-77 -4 -125 -10 -125 -6 0 -10 48 -10 125 0 77 -4 125 -10 125 -6 0 -10 -48
-10 -125 0 -77 -4 -125 -10 -125 -6 0 -10 48 -10 125 0 77 -4 125 -10 125 -6
0 -10 -48 -10 -125 0 -77 -4 -125 -10 -125 -6 0 -10 48 -10 125 0 69 -4 125
-9 125 -4 0 -11 -34 -15 -77z m164 -203 c0 -6 -35 -10 -85 -10 -50 0 -85 4
-85 10 0 6 35 10 85 10 50 0 85 -4 85 -10z m30 -145 l0 -105 -115 0 -115 0 0
105 0 105 115 0 115 0 0 -105z m-260 -1 c0 -54 -4 -83 -10 -79 -11 7 -14 148
-3 158 12 13 13 7 13 -79z m188 -141 c-10 -2 -28 -2 -40 0 -13 2 -5 4 17 4 22
1 32 -1 23 -4z m-28 -37 c0 -11 -19 -15 -25 -6 -3 5 1 10 9 10 9 0 16 -2 16
-4z"/>
<path d="M595 895 c-55 -54 -17 -149 60 -149 51 0 85 36 85 90 0 34 -5 47 -26
63 -37 29 -89 27 -119 -4z m88 -6 c43 -23 50 -66 17 -99 -39 -39 -110 -11
-110 44 0 15 11 33 26 45 31 24 37 25 67 10z"/>
<path d="M355 634 c-62 -32 -79 -60 -50 -84 12 -10 19 -7 39 16 19 22 32 29
64 29 50 0 72 -19 72 -60 0 -36 -23 -62 -60 -67 -17 -2 -26 -10 -28 -25 -3
-19 1 -23 22 -23 39 0 79 -41 78 -79 -1 -47 -27 -71 -74 -71 -28 0 -46 7 -64
25 -17 17 -32 24 -45 20 -27 -9 -24 -27 11 -60 33 -32 106 -44 152 -26 68 26
89 140 35 186 l-24 21 23 28 c15 17 24 40 24 62 0 96 -91 152 -175 108z"/>
<path d="M1004 640 c-37 -15 -64 -59 -64 -106 0 -58 33 -95 110 -124 61 -23
80 -42 80 -79 0 -60 -101 -85 -137 -35 -15 20 -25 25 -41 20 -71 -23 59 -121
134 -102 15 4 42 22 61 41 29 29 33 40 33 83 0 42 -5 55 -29 79 -16 16 -48 35
-71 43 -54 18 -90 46 -90 71 0 74 87 89 143 26 16 -19 19 -20 34 -4 15 15 13
19 -24 57 -34 33 -47 40 -79 39 -22 0 -49 -4 -60 -9z"/>
<path d="M842 573 c-27 -38 -60 -87 -73 -110 -13 -24 -27 -43 -31 -43 -4 0
-15 15 -24 32 -18 36 -121 178 -129 178 -3 0 -5 -97 -5 -215 l0 -215 25 0 24
0 3 152 3 152 53 -87 c30 -48 55 -87 57 -87 2 0 26 39 52 88 l48 87 3 -152 3
-153 24 0 25 0 0 220 c0 121 -2 220 -4 220 -2 0 -26 -30 -54 -67z"/>
</g>
</svg>
