<?xml version="1.0" standalone="no"?>
<!DOCTYPE svg PUBLIC "-//W3C//DTD SVG 20010904//EN"
 "http://www.w3.org/TR/2001/REC-SVG-20010904/DTD/svg10.dtd">
<svg version="1.0" xmlns="http://www.w3.org/2000/svg"
 width="131.452068pt" height="100.943701pt" viewBox="0 0 131.452068 100.943701"
 preserveAspectRatio="xMidYMid meet">
<metadata>
Created by potrace 1.16, written by Peter Selinger 2001-2019
</metadata>
<g transform="translate(-20.368572,136.944812) scale(0.100000,-0.100000)"
fill="#FFFFFF" stroke="none">
<path d="M719 1355 c-126 -34 -237 -124 -293 -235 -19 -38 -37 -87 -41 -109
-6 -36 -10 -40 -38 -43 -29 -3 -34 -10 -89 -132 -33 -71 -57 -135 -54 -142 3
-7 20 -15 38 -19 72 -14 68 -8 68 -110 0 -52 4 -96 9 -99 14 -9 494 -106 524
-106 15 0 60 6 100 14 40 7 101 19 137 25 129 22 295 52 313 57 14 5 17 18 17
94 0 49 4 92 10 95 5 3 29 9 52 13 34 6 44 12 46 29 3 20 -87 242 -110 270 -5
6 -24 13 -41 15 l-32 3 3 62 c8 137 -67 238 -196 263 -31 6 -73 18 -92 27 -95
43 -235 55 -331 28z m137 -50 c-21 -16 -106 -21 -106 -7 0 17 15 22 69 22 51
-1 54 -2 37 -15z m112 -4 c10 -6 2 -14 -27 -28 -28 -14 -43 -17 -51 -9 -7 7
-4 16 12 28 25 19 46 22 66 9z m-264 -18 c3 -4 -13 -25 -37 -47 -24 -23 -49
-50 -55 -61 -10 -20 -11 -19 -36 4 -31 29 -25 40 49 82 52 30 67 34 79 22z
m493 -59 c114 -71 125 -210 23 -286 -14 -10 -54 -23 -89 -29 -53 -8 -66 -7
-81 6 -38 34 -51 11 -25 -42 33 -66 -21 -86 -62 -23 -40 64 -48 71 -68 73 -13
1 -20 -4 -19 -15 1 -14 -6 -18 -38 -18 l-40 0 7 67 c8 78 27 131 67 190 74
110 217 144 325 77z m-349 13 l22 -13 -34 -40 c-30 -35 -43 -42 -99 -52 -79
-15 -97 -15 -97 -1 0 22 53 78 93 98 48 24 82 26 115 8z m-285 -101 c16 -12
16 -18 5 -61 -7 -26 -18 -49 -24 -52 -19 -7 -94 17 -94 30 0 7 14 36 30 65 32
55 35 56 83 18z m215 -68 c-16 -49 -34 -58 -110 -58 -71 0 -74 2 -62 48 6 19
13 22 58 23 28 1 62 5 76 9 46 15 50 13 38 -22z m-273 -83 c33 -8 104 -15 159
-15 l99 0 -7 -32 c-3 -17 -8 -33 -10 -36 -5 -4 -158 19 -263 39 -47 9 -53 13
-53 35 0 28 -3 28 75 9z m807 -98 c-5 -21 -21 -18 -36 6 -8 12 -5 21 9 37 l20
22 6 -24 c3 -12 3 -31 1 -41z m104 -63 c24 -52 44 -101 44 -107 0 -8 -91 -30
-243 -60 -133 -26 -245 -48 -248 -47 -3 0 -28 50 -54 111 -38 89 -44 113 -34
120 20 13 21 12 52 -32 35 -50 68 -64 106 -44 29 15 41 33 41 64 0 14 16 21
72 34 l71 15 19 -24 c39 -49 118 -21 118 43 0 13 3 23 6 23 3 0 25 -43 50 -96z
m-894 60 c79 -14 169 -29 202 -34 32 -5 61 -11 63 -14 10 -9 -80 -196 -94
-196 -13 0 -426 81 -431 85 -1 1 16 39 38 84 22 45 40 86 40 91 0 15 25 13
182 -16z"/>
<path d="M957 1124 c-15 -15 -7 -63 13 -74 33 -17 62 4 58 43 -3 27 -7 32 -33
35 -17 2 -34 0 -38 -4z"/>
<path d="M1188 1105 c-10 -22 -9 -29 9 -46 26 -26 60 -18 69 17 13 52 -56 77
-78 29z"/>
<path d="M1080 1046 c0 -7 7 -19 15 -26 19 -16 65 2 65 25 0 18 -26 20 -33 3
-4 -10 -7 -10 -18 0 -17 16 -29 15 -29 -2z"/>
</g>
</svg>
