<?xml version="1.0" standalone="no"?>
<!DOCTYPE svg PUBLIC "-//W3C//DTD SVG 20010904//EN"
 "http://www.w3.org/TR/2001/REC-SVG-20010904/DTD/svg10.dtd">
<svg version="1.0" xmlns="http://www.w3.org/2000/svg"
 width="141.681928pt" height="81.073543pt" viewBox="0 0 141.681928 81.073543"
 preserveAspectRatio="xMidYMid meet">
<metadata>
Created by potrace 1.16, written by Peter Selinger 2001-2019
</metadata>
<g transform="translate(-20.296327,131.000000) scale(0.100000,-0.100000)"
fill="#FFFFFF" stroke="none">
<path d="M500 1305 c0 -4 7 -19 15 -35 l16 -30 114 0 c73 0 115 4 115 10 0 6
-11 22 -25 35 -23 23 -31 25 -130 25 -58 0 -105 -2 -105 -5z"/>
<path d="M1145 1285 c-42 -42 -34 -46 85 -43 l111 3 20 33 21 32 -106 0 c-100
0 -108 -2 -131 -25z"/>
<path d="M203 1193 c3 -4 58 -96 122 -203 64 -107 128 -210 142 -228 60 -79
118 -62 192 59 28 46 51 87 51 92 0 13 -63 117 -71 117 -4 0 -27 -32 -51 -71
l-44 -70 -90 153 -89 153 -83 3 c-46 2 -82 -1 -79 -5z"/>
<path d="M572 1178 c8 -13 65 -107 127 -210 l112 -188 123 0 123 0 124 202
c68 111 126 205 127 210 2 5 -47 7 -109 6 l-114 -3 -72 -115 c-39 -63 -74
-115 -78 -115 -3 0 -36 52 -73 115 l-67 115 -119 3 -119 3 15 -23z"/>
<path d="M825 1170 c18 -35 23 -36 41 -12 23 29 16 42 -21 42 l-36 0 16 -30z"/>
<path d="M1295 1145 c-19 -30 -35 -59 -35 -65 0 -6 28 -10 70 -10 82 0 123
-17 145 -60 19 -37 19 -73 0 -109 -22 -44 -70 -61 -169 -61 l-86 0 0 73 c0 41
-3 77 -7 80 -3 4 -35 -39 -69 -96 -52 -83 -64 -110 -64 -144 l0 -43 158 0
c183 0 237 12 299 65 58 49 83 106 83 186 0 80 -24 133 -79 180 -47 41 -98 59
-165 59 -45 0 -47 -1 -81 -55z"/>
<path d="M817 764 c-4 -4 -7 -22 -7 -41 0 -28 4 -33 23 -33 13 0 38 -15 57
-35 19 -19 38 -35 42 -35 4 0 20 14 35 30 15 17 40 34 57 38 27 7 31 13 31 43
l0 34 -116 3 c-63 1 -118 -1 -122 -4z"/>
<path d="M925 601 c-4 -8 -106 -11 -311 -11 -191 0 -313 -4 -325 -10 -21 -12
-25 -50 -7 -68 16 -16 1298 -18 1298 -2 0 7 -220 10 -640 10 -578 0 -641 2
-647 16 -3 9 0 20 8 25 8 5 150 9 315 9 258 0 303 2 314 15 7 9 10 18 7 21 -3
3 -8 1 -12 -5z"/>
</g>
</svg>
