<?xml version="1.0" standalone="no"?>
<!DOCTYPE svg PUBLIC "-//W3C//DTD SVG 20010904//EN"
 "http://www.w3.org/TR/2001/REC-SVG-20010904/DTD/svg10.dtd">
<svg version="1.0" xmlns="http://www.w3.org/2000/svg"
 width="87.011096pt" height="94.825505pt" viewBox="0 0 87.011096 94.825505"
 preserveAspectRatio="xMidYMid meet">
<metadata>
Created by potrace 1.16, written by Peter Selinger 2001-2019
</metadata>
<g transform="translate(-24.890347,116.140698) scale(0.100000,-0.100000)"
fill="#FFFFFF" stroke="none">
<path d="M461 1136 l-23 -25 42 -40 43 -41 -7 -114 c-7 -110 -6 -115 14 -126
26 -14 57 -5 65 19 9 30 24 271 18 289 -22 64 -108 85 -152 38z"/>
<path d="M751 1127 c-6 -8 -16 -38 -21 -68 -18 -97 -47 -176 -88 -242 -13 -21
-22 -48 -20 -59 4 -25 30 -43 50 -35 8 3 59 73 112 156 108 170 117 203 70
240 -30 24 -86 28 -103 8z"/>
<path d="M895 846 c-57 -18 -104 -43 -152 -82 -47 -38 -61 -68 -43 -89 20 -25
56 -17 122 26 l63 40 80 -6 c98 -7 148 12 153 58 6 51 -20 67 -107 66 -42 0
-94 -6 -116 -13z"/>
<path d="M477 749 c-14 -8 -77 -117 -77 -133 0 -2 24 -19 53 -36 28 -18 69
-48 90 -69 l39 -36 54 60 c29 33 54 69 54 81 0 22 -28 51 -103 108 -50 37 -78
43 -110 25z"/>
<path d="M335 518 c-15 -35 -29 -68 -32 -75 -3 -6 13 -21 34 -31 21 -11 47
-29 57 -41 26 -29 36 -27 95 20 62 50 66 74 16 118 -39 34 -106 71 -128 71 -8
0 -27 -28 -42 -62z"/>
<path d="M290 393 c0 -5 -11 -45 -24 -91 -19 -68 -21 -84 -10 -89 14 -5 142
95 143 113 1 6 -9 20 -21 31 -38 35 -88 54 -88 36z"/>
</g>
</svg>
