<?xml version="1.0" standalone="no"?>
<!DOCTYPE svg PUBLIC "-//W3C//DTD SVG 20010904//EN"
 "http://www.w3.org/TR/2001/REC-SVG-20010904/DTD/svg10.dtd">
<svg version="1.0" xmlns="http://www.w3.org/2000/svg"
 width="101.724932pt" height="110.703137pt" viewBox="0 0 101.724932 110.703137"
 preserveAspectRatio="xMidYMid meet">
<metadata>
Created by potrace 1.16, written by Peter Selinger 2001-2019
</metadata>
<g transform="translate(-25.068433,130.748558) scale(0.100000,-0.100000)"
fill="#FFFFFF" stroke="none">
<path d="M970 1301 c-8 -6 -33 -11 -55 -11 -43 0 -129 -48 -166 -93 -32 -39
-49 -106 -49 -198 0 -105 -4 -116 -44 -133 -55 -24 -112 -83 -150 -155 -66
-125 -115 -121 -202 15 -47 73 -58 70 -52 -14 11 -157 114 -279 280 -335 14
-5 16 -16 11 -74 -8 -95 -2 -100 127 -102 78 -2 108 2 126 14 32 21 30 50 -6
87 -24 24 -28 33 -19 44 6 8 19 14 29 14 31 0 45 -29 42 -86 -5 -67 7 -74 122
-73 76 1 88 3 101 22 22 32 19 46 -19 82 -33 31 -34 33 -23 72 9 34 7 49 -7
88 -21 53 -11 78 19 45 20 -22 52 -26 89 -9 53 25 34 100 -45 173 -27 25 -49
52 -49 60 0 8 -3 21 -6 29 -4 12 5 14 49 13 65 -1 97 21 97 66 0 19 6 30 18
34 74 22 93 61 72 151 -10 46 -21 65 -59 102 -26 26 -51 59 -54 73 -4 15 -17
33 -29 39 -11 6 -30 22 -42 35 -23 27 -82 41 -106 25z m74 -47 c9 -8 16 -20
16 -25 0 -5 11 -14 25 -19 34 -13 31 -24 -10 -39 -49 -17 -44 -28 16 -33 41
-4 57 -12 84 -39 43 -43 65 -115 47 -155 -12 -26 -14 -26 -86 -22 -79 5 -180
45 -237 93 -18 15 -36 22 -47 18 -49 -17 -58 -52 -12 -45 24 3 39 -5 87 -48
32 -28 89 -67 128 -85 55 -27 65 -35 51 -41 -11 -4 -33 -2 -50 5 -17 7 -47 16
-67 20 -36 8 -82 35 -126 74 -13 11 -23 16 -23 11 0 -20 41 -74 84 -110 62
-52 80 -92 73 -164 -11 -101 -61 -181 -138 -221 -52 -26 -59 -24 -59 16 0 30
3 35 23 35 36 0 77 23 83 46 7 28 -19 88 -51 118 -16 15 -22 27 -15 31 13 8
13 72 0 80 -5 3 -10 -3 -10 -14 0 -11 -11 -33 -25 -49 -26 -31 -32 -52 -16
-52 17 0 68 -49 74 -70 4 -17 3 -19 -9 -9 -11 9 -14 7 -14 -11 0 -19 -2 -20
-15 -10 -12 10 -15 9 -15 -5 0 -12 -13 -4 -45 27 -24 24 -45 51 -45 60 0 10 9
41 20 69 28 71 22 96 -11 44 -33 -51 -52 -109 -44 -134 3 -10 19 -32 35 -49
51 -54 52 -147 2 -199 -15 -16 -40 -38 -56 -49 l-30 -21 51 4 c54 6 93 -8 93
-32 0 -20 -6 -19 -32 7 l-23 23 -3 -22 c-3 -21 -8 -23 -74 -23 l-71 0 7 69 c5
62 3 73 -20 115 -22 39 -26 56 -22 102 3 30 3 54 1 54 -10 0 -33 -78 -33 -112
0 -36 -2 -39 -22 -32 -53 16 -132 93 -168 163 -31 61 -24 67 20 20 22 -24 40
-47 40 -52 0 -4 8 -7 18 -6 9 1 25 -1 35 -6 21 -9 50 12 43 31 -3 8 1 17 8 21
8 5 24 25 36 46 13 22 30 37 41 37 19 0 21 4 23 50 1 20 5 24 24 22 30 -4 52
14 52 44 0 20 6 23 43 26 l42 3 -2 60 c-8 199 -5 222 40 280 15 20 16 20 24
-3 9 -23 10 -22 28 18 30 67 72 78 126 33 l32 -28 -6 31 c-3 18 -3 34 0 38 12
11 41 6 57 -10z m37 -636 c17 -17 27 -38 24 -45 -3 -8 -5 -19 -5 -25 0 -7 -5
-6 -14 1 -11 9 -15 9 -18 -1 -9 -27 -38 20 -38 61 0 49 12 52 51 9z m-95 -183
c9 -38 -4 -76 -39 -112 l-31 -33 46 0 c44 0 78 -18 78 -41 0 -16 -19 -10 -30
11 -6 11 -17 20 -24 20 -9 0 -12 -7 -9 -20 5 -18 0 -20 -51 -20 l-57 0 1 53
c1 28 -1 61 -5 72 -5 16 2 24 29 39 20 10 43 27 52 37 23 25 32 24 40 -6z"/>
<path d="M856 1191 c-24 -27 -17 -70 17 -94 l27 -21 28 21 c51 38 33 113 -28
113 -15 0 -35 -9 -44 -19z m44 -41 c0 -5 -7 -10 -15 -10 -8 0 -15 5 -15 10 0
6 7 10 15 10 8 0 15 -4 15 -10z"/>
<path d="M1170 1031 c0 -6 5 -13 10 -16 6 -3 10 1 10 9 0 9 -4 16 -10 16 -5 0
-10 -4 -10 -9z"/>
<path d="M1085 1021 c-8 -15 3 -31 21 -31 9 0 14 7 12 17 -4 20 -24 28 -33 14z"/>
</g>
</svg>
