<?xml version="1.0" standalone="no"?>
<!DOCTYPE svg PUBLIC "-//W3C//DTD SVG 20010904//EN"
 "http://www.w3.org/TR/2001/REC-SVG-20010904/DTD/svg10.dtd">
<svg version="1.0" xmlns="http://www.w3.org/2000/svg"
 width="110.000000pt" height="69.091695pt" viewBox="0 0 110.000000 69.091695"
 preserveAspectRatio="xMidYMid meet">
<metadata>
Created by potrace 1.16, written by Peter Selinger 2001-2019
</metadata>
<g transform="translate(-21.000000,111.100956) scale(0.100000,-0.100000)"
fill="#FFFFFF" stroke="none">
<path d="M935 1098 c-11 -6 -52 -42 -92 -81 l-72 -71 -74 71 c-104 101 -146
107 -224 29 -59 -59 -55 -106 13 -177 l34 -35 -21 -52 c-12 -29 -24 -50 -27
-48 -2 3 -26 54 -52 113 l-48 108 -81 3 c-68 2 -81 0 -81 -13 0 -9 9 -15 25
-15 l25 0 0 -154 c0 -152 0 -155 -22 -158 -13 -2 -24 -11 -26 -21 -3 -16 3
-18 65 -15 52 2 68 6 68 18 0 8 -10 16 -22 18 -22 3 -23 6 -23 129 0 70 2 124
4 122 2 -2 26 -56 54 -119 47 -106 54 -115 80 -118 l29 -3 -13 -38 c-18 -54
-3 -102 44 -141 47 -39 92 -40 141 -3 57 43 109 105 106 124 -2 9 6 26 18 36
22 18 22 18 4 -3 -17 -21 -17 -22 26 -57 25 -20 48 -33 52 -29 5 4 5 2 2 -4
-4 -7 0 -17 8 -24 8 -7 15 -9 15 -5 0 4 16 -7 35 -24 39 -34 37 -33 80 -36 87
-5 145 120 94 204 l-20 34 47 106 c26 58 48 108 50 110 2 2 4 -55 4 -127 0
-128 -1 -131 -22 -134 -13 -2 -24 -11 -26 -20 -3 -16 7 -18 98 -18 91 0 101 2
98 18 -2 9 -13 18 -26 20 -22 3 -22 6 -22 158 l0 154 25 0 c16 0 25 6 25 15 0
12 -16 15 -80 15 l-80 0 -30 -67 c-17 -38 -41 -90 -53 -117 l-23 -49 -30 70
c-30 68 -31 70 -13 92 19 23 59 37 59 20 0 -5 11 -2 25 8 19 14 24 27 25 61 0
37 -6 48 -45 87 -47 47 -86 57 -130 33z m-284 -55 c13 -15 17 -22 8 -15 -9 6
-20 8 -25 4 -5 -4 -6 -3 -2 2 4 5 3 15 -3 23 -21 25 -3 13 22 -14z m251 7
c-12 -11 -25 -20 -29 -20 -9 1 36 40 45 40 3 0 -4 -9 -16 -20z m96 -47 c-16
-20 -18 -47 -3 -50 6 -2 10 1 10 6 0 5 4 13 9 18 5 5 6 3 2 -4 -4 -7 -2 -14 3
-14 6 -1 17 -2 24 -3 6 -1 16 3 20 9 5 5 5 -1 2 -14 -6 -18 -4 -22 6 -16 8 5
10 4 6 0 -15 -17 -36 -14 -30 3 3 10 -10 2 -30 -17 -20 -19 -38 -33 -40 -30
-17 18 -27 53 -21 71 4 15 3 19 -7 13 -8 -3 -1 5 14 19 32 30 58 36 35 9z
m-407 -10 c13 -16 12 -17 -3 -4 -10 7 -18 15 -18 17 0 8 8 3 21 -13z m259 -7
c0 -2 -8 -10 -17 -17 -16 -13 -17 -12 -4 4 13 16 21 21 21 13z m-290 -266
c-15 -19 -40 -46 -55 -60 l-26 -25 9 25 c6 14 22 51 36 84 l26 58 19 -23 c19
-24 19 -24 -9 -59z m-23 -58 c-31 -32 -57 -63 -57 -70 0 -7 -4 -12 -10 -12 -5
0 -10 3 -10 6 0 8 121 134 129 134 3 0 -20 -26 -52 -58z m243 3 c-24 -25 -46
-45 -49 -45 -3 0 15 20 39 45 24 25 46 45 49 45 3 0 -15 -20 -39 -45z m-213
-3 c-15 -16 -24 -32 -20 -36 5 -4 1 -6 -7 -4 -9 2 -14 -3 -12 -12 2 -8 0 -12
-4 -8 -4 4 -14 2 -23 -4 -9 -7 6 11 34 40 27 29 51 52 54 52 3 0 -7 -13 -22
-28z m148 -40 c-3 -3 -11 0 -18 7 -9 10 -8 11 6 5 10 -3 15 -9 12 -12z m-121
-56 c-3 -8 0 -17 7 -22 7 -4 10 -3 6 3 -4 6 1 17 11 24 15 13 16 12 3 -3 -7
-10 -10 -18 -6 -18 5 0 18 8 29 18 21 17 21 17 2 -5 -11 -13 -16 -23 -11 -23
4 0 2 -7 -5 -15 -7 -8 -17 -15 -23 -15 -6 0 -2 7 9 15 18 14 18 15 -6 11 -14
-2 -24 -9 -22 -15 2 -13 0 -13 -22 -5 -14 5 -13 9 2 32 16 26 16 27 -3 12 -19
-14 -19 -14 -6 3 16 20 43 23 35 3z m116 11 c0 -2 -12 -14 -27 -28 l-28 -24
24 28 c23 25 31 32 31 24z m250 -32 c23 -24 29 -35 18 -35 -9 0 -28 16 -42 35
-15 19 -23 35 -18 35 4 0 23 -16 42 -35z m-226 16 c3 -4 -6 -19 -20 -31 l-24
-24 16 32 c17 34 20 37 28 23z m186 -27 c0 5 7 3 15 -4 9 -7 13 -15 10 -18 -3
-3 0 -11 6 -19 26 -31 0 -9 -41 34 -25 26 -33 37 -17 24 15 -14 27 -21 27 -17z
m-50 -9 c13 -14 21 -25 18 -25 -2 0 -15 11 -28 25 -13 14 -21 25 -18 25 2 0
15 -11 28 -25z"/>
</g>
</svg>
