<?xml version="1.0" standalone="no"?>
<!DOCTYPE svg PUBLIC "-//W3C//DTD SVG 20010904//EN"
 "http://www.w3.org/TR/2001/REC-SVG-20010904/DTD/svg10.dtd">
<svg version="1.0" xmlns="http://www.w3.org/2000/svg"
 width="129.916839pt" height="96.408764pt" viewBox="0 0 129.916839 96.408764"
 preserveAspectRatio="xMidYMid meet">
<metadata>
Created by potrace 1.16, written by Peter Selinger 2001-2019
</metadata>
<g transform="translate(-19.958382,133.805289) scale(0.100000,-0.100000)"
fill="#FFFFFF" stroke="none">
<path d="M535 1317 c-35 -54 -31 -130 10 -192 30 -43 26 -55 -19 -55 -22 0
-40 8 -57 26 -13 14 -49 39 -80 54 -31 16 -82 45 -115 64 -32 20 -63 36 -68
36 -17 0 3 -82 29 -116 19 -25 25 -42 21 -62 -7 -28 24 -92 44 -92 7 0 9 -13
5 -34 -6 -30 -3 -36 35 -68 26 -23 37 -38 28 -41 -33 -12 64 -98 135 -119 29
-9 60 -31 101 -73 65 -66 78 -102 40 -111 -13 -3 -26 -15 -29 -25 -4 -12 -19
-22 -36 -26 -26 -5 -34 -14 -30 -36 1 -4 -5 -15 -14 -23 -31 -32 -5 -58 44
-44 18 5 56 5 89 1 31 -5 77 -7 102 -4 56 5 92 5 150 -1 25 -2 71 0 102 4 35
5 71 5 94 -1 42 -12 61 -1 48 28 -4 10 -8 27 -8 38 -1 13 -14 26 -38 37 -21
10 -38 23 -38 28 0 6 -11 16 -25 22 -39 17 -30 47 33 114 40 43 67 64 92 69
43 10 135 67 149 94 9 16 8 22 -6 29 -14 9 -14 10 5 16 11 4 35 23 52 43 29
32 30 37 16 51 -14 14 -12 19 14 49 21 24 30 44 30 69 0 22 9 47 25 68 28 36
45 116 25 116 -7 0 -38 -15 -69 -34 -31 -19 -81 -46 -111 -61 -30 -15 -70 -41
-88 -56 -30 -27 -79 -39 -94 -23 -4 3 7 30 23 61 33 63 37 112 11 163 -21 44
-43 45 -56 2 -5 -18 -25 -50 -45 -70 -29 -30 -51 -41 -111 -56 -41 -10 -82
-23 -91 -29 -10 -6 -24 -5 -45 6 -16 8 -55 20 -87 27 -71 14 -108 44 -136 110
-24 56 -34 61 -56 27z m550 -187 c-3 -5 -46 -30 -96 -56 -52 -27 -101 -60
-118 -81 l-28 -34 -26 34 c-14 19 -38 40 -54 48 -122 63 -154 81 -150 85 10
11 187 -87 208 -116 l23 -30 25 30 c14 17 69 53 121 80 107 55 103 54 95 40z
m-430 -90 c3 -5 1 -10 -5 -10 -5 0 -17 -15 -26 -33 -14 -30 -14 -37 0 -70 20
-50 70 -74 117 -58 25 9 34 8 41 -1 12 -20 10 -25 -14 -32 -92 -24 -179 34
-182 122 -1 60 47 117 69 82z m430 -10 c26 -29 26 -101 -1 -137 -37 -50 -131
-80 -172 -55 -18 12 -4 45 17 37 44 -17 67 -16 101 7 48 32 59 76 32 122 -28
47 -12 65 23 26z m94 -22 l-13 -23 -6 25 c-4 18 -2 27 9 31 21 8 25 -5 10 -33z
m-643 16 c-3 -9 -6 -21 -6 -27 -1 -13 -30 22 -30 35 0 4 9 8 21 8 15 0 19 -4
15 -16z m136 -17 c-40 -43 -18 -107 37 -107 31 0 44 8 59 35 11 20 11 20 12
-2 0 -27 -35 -53 -73 -53 -63 0 -101 86 -57 130 28 28 48 25 22 -3z m368 3
c46 -46 6 -130 -61 -130 -37 0 -69 24 -69 53 0 18 2 17 21 -7 37 -47 109 -27
109 32 0 14 -10 36 -22 49 -26 28 -6 31 22 3z m-304 -21 c3 -6 0 -17 -7 -25
-18 -17 -44 -2 -36 20 7 18 33 21 43 5z m261 -5 c3 -8 1 -20 -6 -27 -14 -14
-47 15 -37 32 10 16 36 13 43 -5z m-141 -63 c9 7 15 5 22 -8 7 -13 4 -34 -11
-73 l-20 -55 -18 40 c-26 59 -23 123 5 95 6 -6 14 -6 22 1z"/>
</g>
</svg>
