<?xml version="1.0" standalone="no"?>
<!DOCTYPE svg PUBLIC "-//W3C//DTD SVG 20010904//EN"
 "http://www.w3.org/TR/2001/REC-SVG-20010904/DTD/svg10.dtd">
<svg version="1.0" xmlns="http://www.w3.org/2000/svg"
 width="164.829736pt" height="71.971271pt" viewBox="0 0 164.829736 71.971271"
 preserveAspectRatio="xMidYMid meet">
<metadata>
Created by potrace 1.16, written by Peter Selinger 2001-2019
</metadata>
<g transform="translate(-19.986975,138.971271) scale(0.100000,-0.100000)"
fill="#FFFFFF" stroke="none">
<path d="M1027 1384 c-4 -4 -7 -16 -7 -26 0 -10 -4 -18 -10 -18 -5 0 -10 -11
-10 -24 0 -14 5 -28 10 -31 6 -3 10 -35 10 -71 0 -94 8 -104 80 -104 48 0 61
4 70 19 12 23 14 111 3 111 -18 -1 -31 -16 -34 -40 -4 -24 -17 -28 -61 -21 -5
0 -8 23 -8 50 l0 50 38 3 c32 3 37 7 40 31 3 25 1 27 -37 27 -33 0 -40 3 -43
22 -3 23 -27 35 -41 22z"/>
<path d="M1200 1371 c0 -11 -4 -23 -10 -26 -5 -3 -10 -19 -10 -36 0 -16 5 -29
10 -29 6 0 10 -29 10 -66 0 -94 8 -104 80 -104 68 0 80 12 80 79 0 34 -3 41
-20 41 -15 0 -20 -7 -20 -24 0 -30 -14 -40 -46 -32 -21 6 -24 12 -24 56 l0 50
35 0 c32 0 35 2 35 30 0 28 -3 30 -34 30 -28 0 -35 4 -38 23 -4 30 -48 38 -48
8z"/>
<path d="M216 1298 c-20 -28 -22 -146 -3 -172 10 -14 26 -16 92 -14 79 3 80 3
83 30 3 27 3 27 -65 30 l-68 3 -3 38 -3 37 75 0 76 0 0 -115 0 -115 25 0 25 0
0 123 c0 78 -5 131 -13 147 -12 24 -17 25 -109 28 -90 3 -97 1 -112 -20z"/>
<path d="M464 1306 c-11 -28 1 -162 15 -180 11 -13 33 -16 116 -16 l103 0 11
28 c7 16 11 62 9 103 -3 66 -5 74 -23 74 -18 0 -21 -8 -25 -70 l-5 -70 -75 0
-75 0 -5 70 c-4 56 -8 70 -23 73 -9 2 -20 -4 -23 -12z"/>
<path d="M744 1288 c-19 -37 -16 -137 5 -162 10 -12 33 -16 97 -16 l84 0 0 30
0 29 -72 3 -73 3 0 35 0 35 77 3 c86 3 90 0 87 -78 -2 -54 0 -60 21 -60 19 0
20 7 20 89 0 119 -2 121 -130 121 l-99 0 -17 -32z"/>
<path d="M1396 1298 c-11 -16 -16 -46 -16 -105 0 -82 0 -83 25 -83 24 0 25 2
25 71 l0 70 53 -3 c45 -3 52 -6 55 -25 2 -15 10 -23 23 -23 16 0 19 7 19 44 0
63 -17 76 -100 76 -60 0 -71 -3 -84 -22z"/>
<path d="M1616 1298 c-20 -29 -22 -146 -2 -173 13 -18 14 -17 28 10 11 21 13
35 5 55 -18 47 -5 60 61 60 53 0 60 2 70 25 7 14 12 30 12 35 0 6 -36 10 -79
10 -71 0 -82 -2 -95 -22z"/>
<path d="M1796 1281 c-10 -19 -12 -31 -5 -38 6 -6 9 -23 7 -39 -3 -28 -5 -29
-61 -32 -52 -3 -58 -6 -72 -32 l-16 -30 85 0 c64 0 87 4 97 16 28 34 20 184
-10 184 -6 0 -17 -13 -25 -29z"/>
<path d="M220 840 c0 -72 5 -140 10 -151 10 -17 22 -19 109 -19 121 0 126 4
126 105 0 98 -7 105 -106 105 l-79 0 0 -35 0 -35 70 0 70 0 0 -35 0 -35 -75 0
-74 0 -3 113 c-3 108 -4 112 -25 115 -23 3 -23 3 -23 -128z"/>
<path d="M494 848 c-18 -36 -16 -140 4 -160 21 -21 37 8 37 65 l0 52 56 3 c48
3 57 6 72 31 9 16 14 31 10 35 -3 3 -41 6 -84 6 -78 0 -79 0 -95 -32z"/>
<path d="M750 872 c0 -5 13 -26 30 -48 16 -21 30 -42 30 -46 0 -5 -16 -30 -36
-58 l-36 -50 40 0 c32 0 44 5 59 26 l19 25 14 -25 c11 -21 21 -26 52 -26 21 0
38 2 38 5 0 3 -15 26 -34 52 l-34 47 29 42 c37 54 36 64 -4 64 -26 0 -37 -6
-47 -26 l-14 -25 -19 25 c-14 19 -28 26 -53 26 -19 0 -34 -4 -34 -8z"/>
<path d="M682 846 c-8 -18 -8 -32 0 -54 17 -45 -1 -62 -67 -62 -46 0 -53 -3
-63 -25 -7 -14 -12 -28 -12 -30 0 -3 38 -5 85 -5 101 0 105 4 105 107 0 86
-24 121 -48 69z"/>
</g>
</svg>
