<?xml version="1.0" standalone="no"?>
<!DOCTYPE svg PUBLIC "-//W3C//DTD SVG 20010904//EN"
 "http://www.w3.org/TR/2001/REC-SVG-20010904/DTD/svg10.dtd">
<svg version="1.0" xmlns="http://www.w3.org/2000/svg"
 width="92.468736pt" height="95.227219pt" viewBox="0 0 92.468736 95.227219"
 preserveAspectRatio="xMidYMid meet">
<metadata>
Created by potrace 1.16, written by Peter Selinger 2001-2019
</metadata>
<g transform="translate(-20.531264,114.806433) scale(0.100000,-0.100000)"
fill="#FFFFFF" stroke="none">
<path d="M313 1143 c9 -2 23 -2 30 0 6 3 -1 5 -18 5 -16 0 -22 -2 -12 -5z"/>
<path d="M822 988 c-31 -31 7 -81 43 -55 23 18 16 61 -10 65 -11 1 -26 -3 -33
-10z m38 -22 c0 -3 -4 -8 -10 -11 -5 -3 -10 -1 -10 4 0 6 5 11 10 11 6 0 10
-2 10 -4z"/>
<path d="M565 890 c-50 -50 -77 -70 -95 -70 -19 0 -55 -30 -145 -120 l-120
-120 423 0 c362 0 426 -2 446 -15 30 -20 56 -10 56 21 0 32 -31 48 -56 29 -16
-12 -87 -14 -414 -15 l-395 0 95 95 c69 69 101 95 120 95 17 0 45 20 92 67
l68 67 28 -27 c15 -15 39 -27 52 -27 14 0 40 -15 62 -37 29 -28 40 -34 51 -25
10 9 29 -5 87 -63 41 -41 71 -75 67 -75 -4 0 -3 -9 3 -20 13 -24 58 -27 67 -4
8 21 -9 48 -33 52 -10 2 -53 38 -95 79 -58 57 -81 74 -96 69 -13 -4 -28 3 -48
24 -18 18 -39 30 -55 30 -16 0 -37 12 -55 30 -16 17 -31 30 -35 30 -3 0 -37
-31 -75 -70z m540 -300 c3 -5 1 -10 -4 -10 -6 0 -11 5 -11 10 0 6 2 10 4 10 3
0 8 -4 11 -10z"/>
<path d="M605 850 c-8 -24 10 -50 34 -50 10 0 32 -16 51 -35 30 -31 39 -35 87
-35 l53 0 0 -35 c0 -25 5 -37 18 -41 9 -3 27 -10 38 -16 36 -17 59 -6 59 27 0
25 -4 31 -27 33 -16 2 -28 -1 -28 -7 0 -6 -7 -11 -15 -11 -11 0 -15 11 -15 40
l0 40 -63 0 c-56 0 -66 3 -90 28 -15 15 -27 35 -27 43 0 39 -64 55 -75 19z"/>
<path d="M614 755 c-12 -9 -43 -14 -85 -15 -53 0 -69 -4 -84 -20 -10 -11 -26
-20 -36 -20 -24 0 -40 -30 -28 -53 6 -9 21 -17 34 -17 19 0 26 7 31 28 12 49
32 62 93 62 33 -1 64 -7 75 -15 11 -8 23 -15 27 -15 10 0 39 30 39 40 0 10
-29 40 -39 40 -4 0 -16 -7 -27 -15z m36 -25 c0 -5 -4 -10 -10 -10 -5 0 -10 5
-10 10 0 6 5 10 10 10 6 0 10 -4 10 -10z"/>
<path d="M490 685 c-26 -31 16 -69 51 -47 23 15 185 16 194 2 10 -17 54 -11
64 8 13 25 -5 52 -34 52 -14 0 -25 -4 -25 -10 0 -6 -38 -10 -94 -10 -53 0 -98
4 -101 10 -9 15 -41 12 -55 -5z"/>
<path d="M380 541 c0 -4 24 -30 53 -59 34 -34 61 -52 77 -52 16 0 43 -18 77
-52 41 -41 55 -50 65 -40 7 7 23 12 37 12 17 0 43 17 78 52 42 41 55 50 65 40
10 -10 24 -1 65 40 29 29 53 55 53 59 0 16 -40 -5 -71 -37 -25 -26 -35 -31
-46 -22 -11 9 -26 0 -71 -44 -42 -41 -67 -57 -93 -61 -33 -5 -41 -1 -80 39
-29 30 -52 44 -69 44 -17 0 -39 14 -64 39 -35 36 -76 59 -76 42z"/>
<path d="M530 539 c-24 -7 -24 -7 5 -8 22 -1 42 -13 70 -41 21 -22 48 -40 60
-40 25 0 112 85 96 94 -5 4 -28 -9 -49 -29 -22 -19 -43 -35 -48 -35 -4 0 -23
14 -41 32 -35 33 -52 39 -93 27z"/>
<path d="M636 541 c-3 -4 3 -16 13 -25 16 -15 19 -15 34 2 10 10 14 22 10 25
-9 10 -51 9 -57 -2z"/>
<path d="M335 440 c82 -82 105 -100 130 -100 23 0 44 -15 102 -72 l73 -72 33
32 c18 18 43 32 56 32 13 0 39 14 58 30 28 25 37 29 50 19 12 -11 33 6 125 98
71 71 108 115 103 123 -5 8 -41 -21 -111 -91 -86 -85 -105 -100 -118 -90 -12
10 -21 6 -50 -23 -23 -24 -45 -36 -63 -36 -16 0 -39 -11 -55 -27 l-28 -27 -68
67 c-53 53 -74 67 -97 67 -25 0 -46 16 -115 85 -50 50 -93 85 -105 85 -14 0 7
-26 80 -100z"/>
<path d="M380 465 c53 -53 82 -75 99 -75 18 0 46 -20 93 -67 l67 -67 27 27
c15 15 38 27 52 27 17 0 41 15 69 42 24 23 43 37 43 30 0 -27 30 -7 110 73 63
64 80 85 64 85 -11 0 -47 -28 -84 -65 -49 -50 -70 -65 -86 -61 -15 4 -32 -7
-64 -39 -31 -32 -52 -45 -71 -45 -15 0 -35 -7 -44 -16 -15 -16 -21 -13 -74 40
-38 38 -65 56 -82 56 -17 0 -44 20 -89 65 -37 37 -73 65 -84 65 -16 0 -3 -18
54 -75z"/>
<path d="M465 510 c20 -21 38 -30 60 -30 23 0 41 -10 70 -40 57 -59 84 -55
163 21 53 50 66 58 78 48 12 -10 19 -8 37 9 l21 22 -50 0 c-49 0 -53 -2 -103
-55 -63 -67 -83 -69 -136 -15 -29 30 -47 40 -71 40 -17 0 -37 7 -44 15 -7 8
-22 15 -33 15 -19 0 -19 -2 8 -30z"/>
</g>
</svg>
